<svg width="25" height="26" viewBox="0 0 25 26" fill="none" xmlns="http://www.w3.org/2000/svg">
<path d="M25 12.5363C25.0043 15.3354 24.0691 18.0549 22.344 20.2592C20.619 22.4635 18.2041 24.0251 15.4861 24.6938C12.768 25.3624 9.90425 25.0994 7.35345 23.947C4.80265 22.7946 2.71245 20.8193 1.41771 18.3377C0.122958 15.8561 -0.301415 13.0118 0.212568 10.2603C0.726551 7.50886 2.14915 5.00952 4.25246 3.16269C6.35578 1.31587 9.01809 0.228421 11.8129 0.0745631C14.6077 -0.0792951 17.3733 0.709337 19.6667 2.31413L19.5139 1.86968C19.396 1.51053 19.4256 1.11927 19.5962 0.781966C19.7668 0.444661 20.0645 0.188945 20.4236 0.071071C20.7827 -0.046803 21.174 -0.0171786 21.5113 0.153427C21.8486 0.324033 22.1043 0.621646 22.2222 0.980793L23.6111 5.14746C23.68 5.35632 23.6983 5.57856 23.6645 5.79588C23.6306 6.0132 23.5457 6.21938 23.4167 6.39746C23.2822 6.58679 23.1024 6.73939 22.8938 6.8413C22.6851 6.9432 22.4542 6.99116 22.2222 6.98079H18.0555C17.6872 6.98079 17.3339 6.83446 17.0735 6.57399C16.813 6.31353 16.6667 5.96026 16.6667 5.5919C16.6717 5.29792 16.7699 5.01312 16.9471 4.77851C17.1243 4.54389 17.3714 4.37157 17.6528 4.28635C15.8257 3.14445 13.6712 2.64179 11.5274 2.85731C9.38373 3.07284 7.37233 3.99434 5.80918 5.47708C4.24602 6.95982 3.21968 8.91979 2.89134 11.0491C2.563 13.1785 2.95128 15.3566 3.99518 17.2413C5.03908 19.1261 6.67947 20.6107 8.65869 21.4619C10.6379 22.3132 12.8438 22.4829 14.93 21.9444C17.0161 21.4059 18.8643 20.1897 20.1842 18.4868C21.5041 16.7839 22.221 14.6909 22.2222 12.5363C22.2222 12.168 22.3685 11.8147 22.629 11.5542C22.8895 11.2938 23.2427 11.1475 23.6111 11.1475C23.9795 11.1475 24.3327 11.2938 24.5932 11.5542C24.8537 11.8147 25 12.168 25 12.5363Z" fill="#8B9E70"/>
</svg>
